<svg xmlns="http://www.w3.org/2000/svg" width="805" height="600"><rect width="805" height="600" x="0" y="0" fill="#FFFFFF" id="background"/><g transform="translate(10,10)" id="viz"><g><rect x="0" y="102.85007224003063" height="15.980353295161223" width="5" fill="black"><title>Abril 2025: 42536.990000000005</title></rect><rect x="780" y="304.4445593707648" height="25.170668394577433" width="5" fill="black"><title>Descuento Conexión Total: 67000.05</title></rect><rect x="780" y="343.2622865888717" height="13.986612437205963" width="5" fill="black"><title>Flow Box: 37229.99</title></rect><rect x="780" y="214.25730813823418" height="76.54019240900129" width="5" fill="black"><title>Pack Fútbol: 203737.01</title></rect><rect x="780" y="27.294117647059277" height="159.5450980027508" width="5" fill="black"><title>Internet 300 MB + Flow Full: 424681.99</title></rect><rect x="0" y="132.47748435872126" height="16.46048155807486" width="5" fill="black"><title>Mayo 2025: 43815.009999999995</title></rect><rect x="0" y="162.5850247403255" height="17.12844297609695" width="5" fill="black"><title>Junio 2025: 45593.01</title></rect><rect x="0" y="0" height="17.671674433265647" width="5" fill="black"><title>Julio 2025: 47039</title></rect><rect x="780" y="200.48627447333948" height="0.12397484136528192" width="5" fill="black"><title>Roaming Internacional: 330</title></rect><rect x="0" y="193.36052653995188" height="17.97973312999136" width="5" fill="black"><title>Agosto 2025: 47859</title></rect><rect x="0" y="31.318733256795053" height="21.91348865782962" width="5" fill="black"><title>Septiembre 2025: 58329.99</title></rect><rect x="0" y="66.87928073815408" height="22.32373267834714" width="5" fill="black"><title>Octubre 2025: 59421.99</title></rect><rect x="0" y="370.7790427165242" height="59.63792086850134" width="5" fill="black"><title>Noviembre 2025: 158746.02999999997</title></rect><rect x="780" y="370.89595784960704" height="134.70192981411333" width="5" fill="black"><title>Plan 4 GB: 358553.69</title></rect><rect x="780" y="533.0704539460777" height="13.524528148930699" width="5" fill="black"><title>10 GB 30 días: 36000</title></rect><rect x="780" y="560.2420409185379" height="3.5689764627812792" width="5" fill="black"><title>3 GB: 9500.01</title></rect><rect x="0" y="444.06402240855493" height="57.023734768087365" width="5" fill="black"><title>Diciembre 2025: 151787.51</title></rect><rect x="0" y="297.2716634295244" height="59.86032046347043" width="5" fill="black"><title>Enero 2026: 159338.02</title></rect><rect x="0" y="514.7348160001717" height="65.26518399982831" width="5" fill="black"><title>Febrero 2026: 173724.85</title></rect><rect x="780" y="577.4580762048486" height="2.5419237951514333" width="5" fill="black"><title>Roaming Paraguay: 6766.17</title></rect><rect x="0" y="224.98731849347263" height="58.637286112522304" width="5" fill="black"><title>Marzo 2026: 156082.51</title></rect><rect x="780" y="519.2449464872499" height="0.17844863529853683" width="5" fill="black"><title>Roaming Panama: 475</title></rect></g><g class="links" fill="none" stroke-opacity="1"><path d="M5,117.66581338903373C392.5,117.66581338903373,392.5,305.75944405191086,780,305.75944405191086" stroke="#1f77b4" style="stroke-width: 1; mix-blend-mode: multiply;"><title>Abril 2025 → Descuento Conexión Total: 1000</title></path><path d="M5,118.34203979648028C392.5,118.34203979648028,392.5,347.17312179831066,780,347.17312179831066" stroke="#1f77b4" style="stroke-width: 1; mix-blend-mode: multiply;"><title>Abril 2025 → Flow Box: 2600</title></path><path d="M5,114.82941929113294C392.5,114.82941929113294,392.5,235.10649532382368,780,235.10649532382368" stroke="#1f77b4" style="stroke-width: 5.29711; mix-blend-mode: multiply;"><title>Abril 2025 → Pack Fútbol: 14100</title></path><path d="M5,107.51546905099887C392.5,107.51546905099887,392.5,70.99430814654217,780,70.99430814654217" stroke="#1f77b4" style="stroke-width: 9.33079; mix-blend-mode: multiply;"><title>Abril 2025 → Internet 300 MB + Flow Full: 24836.99</title></path><path d="M5,147.75081289038997C392.5,147.75081289038997,392.5,306.13512538938113,780,306.13512538938113" stroke="#bcbd22" style="stroke-width: 1; mix-blend-mode: multiply;"><title>Mayo 2025 → Descuento Conexión Total: 1000</title></path><path d="M5,148.43830973796068C392.5,148.43830973796068,392.5,348.1611637158577,780,348.1611637158577" stroke="#bcbd22" style="stroke-width: 1; mix-blend-mode: multiply;"><title>Mayo 2025 → Flow Box: 2660</title></path><path d="M5,144.80171439124805C392.5,144.80171439124805,392.5,240.5163065833961,780,240.5163065833961" stroke="#bcbd22" style="stroke-width: 5.52252; mix-blend-mode: multiply;"><title>Mayo 2025 → Pack Fútbol: 14700</title></path><path d="M5,137.25897045978127C392.5,137.25897045978127,392.5,80.44119105857058,780,80.44119105857058" stroke="#bcbd22" style="stroke-width: 9.56297; mix-blend-mode: multiply;"><title>Mayo 2025 → Internet 300 MB + Flow Full: 25455.01</title></path><path d="M5,178.47747235933178C392.5,178.47747235933178,392.5,306.51080672685146,780,306.51080672685146" stroke="#e377c2" style="stroke-width: 1; mix-blend-mode: multiply;"><title>Junio 2025 → Descuento Conexión Total: 1000</title></path><path d="M5,179.18939037224462C392.5,179.18939037224462,392.5,349.1848972388708,780,349.1848972388708" stroke="#e377c2" style="stroke-width: 1.04815; mix-blend-mode: multiply;"><title>Junio 2025 → Flow Box: 2790.01</title></path><path d="M5,175.45323759269584C392.5,175.45323759269584,392.5,246.1139585117037,780,246.1139585117037" stroke="#e377c2" style="stroke-width: 5.67279; mix-blend-mode: multiply;"><title>Junio 2025 → Pack Fútbol: 15100</title></path><path d="M5,167.60093411756037C392.5,167.60093411756037,392.5,90.23858653686543,780,90.23858653686543" stroke="#e377c2" style="stroke-width: 10.0318; mix-blend-mode: multiply;"><title>Junio 2025 → Internet 300 MB + Flow Full: 26703</title></path><path d="M5,10.345136989919828C392.5,10.345136989919828,392.5,200.54826189402212,780,200.54826189402212" stroke="#8c564b" style="stroke-width: 1; mix-blend-mode: multiply;"><title>Julio 2025 → Roaming Internacional: 330</title></path><path d="M5,16.40938513936531C392.5,16.40938513936531,392.5,304.6324000395,780,304.6324000395" stroke="#8c564b" style="stroke-width: 1; mix-blend-mode: multiply;"><title>Julio 2025 → Descuento Conexión Total: 1000</title></path><path d="M5,17.134450120682974C392.5,17.134450120682974,392.5,343.7995109014542,780,343.7995109014542" stroke="#8c564b" style="stroke-width: 1.07445; mix-blend-mode: multiply;"><title>Julio 2025 → Flow Box: 2860</title></path><path d="M5,13.314334440616243C392.5,13.314334440616243,392.5,217.1645181682481,780,217.1645181682481" stroke="#8c564b" style="stroke-width: 5.81442; mix-blend-mode: multiply;"><title>Julio 2025 → Pack Fútbol: 15477</title></path><path d="M5,5.141574784618669C392.5,5.141574784618669,392.5,32.43569243167794,780,32.43569243167794" stroke="#8c564b" style="stroke-width: 10.2831; mix-blend-mode: multiply;"><title>Julio 2025 → Internet 300 MB + Flow Full: 27372</title></path><path d="M5,210.02537498879707C392.5,210.02537498879707,392.5,306.8864880643217,780,306.8864880643217" stroke="#ff7f0e" style="stroke-width: 1; mix-blend-mode: multiply;"><title>Agosto 2025 → Descuento Conexión Total: 1000</title></path><path d="M5,210.77673766373763C392.5,210.77673766373763,392.5,350.27249658925405,780,350.27249658925405" stroke="#ff7f0e" style="stroke-width: 1.12704; mix-blend-mode: multiply;"><title>Agosto 2025 → Flow Box: 3000</title></path><path d="M5,206.86965175404654C392.5,206.86965175404654,392.5,251.91823517561986,780,251.91823517561986" stroke="#ff7f0e" style="stroke-width: 5.93577; mix-blend-mode: multiply;"><title>Agosto 2025 → Pack Fútbol: 15800</title></path><path d="M5,198.6311478639916C392.5,198.6311478639916,392.5,100.52511723813983,780,100.52511723813983" stroke="#ff7f0e" style="stroke-width: 10.5412; mix-blend-mode: multiply;"><title>Agosto 2025 → Internet 300 MB + Flow Full: 28059</title></path><path d="M5,51.88728648329428C392.5,51.88728648329428,392.5,305.00808137697027,780,305.00808137697027" stroke="#cccccc" style="stroke-width: 1; mix-blend-mode: multiply;"><title>Septiembre 2025 → Descuento Conexión Total: 1000</title></path><path d="M5,52.65367453332705C392.5,52.65367453332705,392.5,344.91528259533436,780,344.91528259533436" stroke="#cccccc" style="stroke-width: 1.15709; mix-blend-mode: multiply;"><title>Septiembre 2025 → Flow Box: 3079.99</title></path><path d="M5,48.64327813423819C392.5,48.64327813423819,392.5,223.12789587858296,780,223.12789587858296" stroke="#cccccc" style="stroke-width: 6.11234; mix-blend-mode: multiply;"><title>Septiembre 2025 → Pack Fútbol: 16270</title></path><path d="M5,38.452921855356145C392.5,38.452921855356145,392.5,44.71145581485755,780,44.71145581485755" stroke="#cccccc" style="stroke-width: 14.2684; mix-blend-mode: multiply;"><title>Septiembre 2025 → Internet 300 MB + Flow Full: 37980</title></path><path d="M5,87.82426666479861C392.5,87.82426666479861,392.5,305.38376271444054,780,305.38376271444054" stroke="#cccccc" style="stroke-width: 1; mix-blend-mode: multiply;"><title>Octubre 2025 → Descuento Conexión Total: 1000</title></path><path d="M5,88.60756037501748C392.5,88.60756037501748,392.5,346.08928301811557,780,346.08928301811557" stroke="#cccccc" style="stroke-width: 1.19091; mix-blend-mode: multiply;"><title>Octubre 2025 → Flow Box: 3169.99</title></path><path d="M5,84.4994868281864C392.5,84.4994868281864,392.5,229.32100272678096,780,229.32100272678096" stroke="#cccccc" style="stroke-width: 6.27388; mix-blend-mode: multiply;"><title>Octubre 2025 → Pack Fútbol: 16700</title></path><path d="M5,74.1209141992317C392.5,74.1209141992317,392.5,59.08727787449628,780,59.08727787449628" stroke="#cccccc" style="stroke-width: 14.4833; mix-blend-mode: multiply;"><title>Octubre 2025 → Internet 300 MB + Flow Full: 38552</title></path><path d="M5,394.16746194048216C392.5,394.16746194048216,392.5,318.3447782491994,780,318.3447782491994" stroke="#17becf" style="stroke-width: 4.50818; mix-blend-mode: multiply;"><title>Noviembre 2025 → Descuento Conexión Total: 12000.01</title></path><path d="M5,411.30604831269096C392.5,411.30604831269096,392.5,436.2598201879419,780,436.2598201879419" stroke="#17becf" style="stroke-width: 27.3271; mix-blend-mode: multiply;"><title>Noviembre 2025 → Plan 4 GB: 72740.01</title></path><path d="M5,397.0320340171001C392.5,397.0320340171001,392.5,354.06875650439144,780,354.06875650439144" stroke="#17becf" style="stroke-width: 1.22096; mix-blend-mode: multiply;"><title>Noviembre 2025 → Flow Box: 3250</title></path><path d="M5,388.68251253500904C392.5,388.68251253500904,392.5,273.0390437250136,780,273.0390437250136" stroke="#17becf" style="stroke-width: 6.46172; mix-blend-mode: multiply;"><title>Noviembre 2025 → Pack Fútbol: 17200</title></path><path d="M5,427.2236684597142C392.5,427.2236684597142,392.5,539.8327180205432,780,539.8327180205432" stroke="#17becf" style="stroke-width: 4.50818; mix-blend-mode: multiply;"><title>Noviembre 2025 → 10 GB 30 días: 12000</title></path><path d="M5,429.9473600347809C392.5,429.9473600347809,392.5,560.7116444687825,780,560.7116444687825" stroke="#17becf" style="stroke-width: 1; mix-blend-mode: multiply;"><title>Noviembre 2025 → 3 GB: 2500.01</title></path><path d="M5,378.1153478746443C392.5,378.1153478746443,392.5,148.68201356562616,780,148.68201356562616" stroke="#17becf" style="stroke-width: 14.6726; mix-blend-mode: multiply;"><title>Noviembre 2025 → Internet 300 MB + Flow Full: 39056</title></path><path d="M5,468.00243911056964C392.5,468.00243911056964,392.5,322.8529580556565,780,322.8529580556565" stroke="#2ca02c" style="stroke-width: 4.50818; mix-blend-mode: multiply;"><title>Diciembre 2025 → Descuento Conexión Total: 12000.01</title></path><path d="M5,484.51504457581143C392.5,484.51504457581143,392.5,462.92709220500603,780,462.92709220500603" stroke="#2ca02c" style="stroke-width: 26.0075; mix-blend-mode: multiply;"><title>Diciembre 2025 → Plan 4 GB: 69227.5</title></path><path d="M5,470.8839168473732C392.5,470.8839168473732,392.5,355.3066265113562,780,355.3066265113562" stroke="#2ca02c" style="stroke-width: 1.25478; mix-blend-mode: multiply;"><title>Diciembre 2025 → Flow Box: 3340</title></path><path d="M5,462.42356937072867C392.5,462.42356937072867,392.5,279.59468306387055,780,279.59468306387055" stroke="#2ca02c" style="stroke-width: 6.64956; mix-blend-mode: multiply;"><title>Diciembre 2025 → Pack Fútbol: 17700</title></path><path d="M5,498.64582848308527C392.5,498.64582848308527,392.5,543.2138500577762,780,543.2138500577762" stroke="#2ca02c" style="stroke-width: 2.25409; mix-blend-mode: multiply;"><title>Diciembre 2025 → 10 GB 30 días: 6000</title></path><path d="M5,500.4303148360692C392.5,500.4303148360692,392.5,561.8386903595999,780,561.8386903595999" stroke="#2ca02c" style="stroke-width: 1.31488; mix-blend-mode: multiply;"><title>Diciembre 2025 → 3 GB: 3500</title></path><path d="M5,451.58140597133576C392.5,451.58140597133576,392.5,163.53570228652714,780,163.53570228652714" stroke="#2ca02c" style="stroke-width: 15.0348; mix-blend-mode: multiply;"><title>Diciembre 2025 → Internet 300 MB + Flow Full: 40020</title></path><path d="M5,321.705231891138C392.5,321.705231891138,392.5,313.83659844274234,780,313.83659844274234" stroke="#d62728" style="stroke-width: 4.50818; mix-blend-mode: multiply;"><title>Enero 2026 → Descuento Conexión Total: 12000.01</title></path><path d="M5,338.93022309255826C392.5,338.93022309255826,392.5,408.90270331494764,780,408.90270331494764" stroke="#d62728" style="stroke-width: 27.3872; mix-blend-mode: multiply;"><title>Enero 2026 → Plan 4 GB: 72900</title></path><path d="M5,324.5979800680661C392.5,324.5979800680661,392.5,352.81961605730265,780,352.81961605730265" stroke="#d62728" style="stroke-width: 1.27732; mix-blend-mode: multiply;"><title>Enero 2026 → Flow Box: 3400</title></path><path d="M5,316.02680471846105C392.5,316.02680471846105,392.5,266.3838469533206,780,266.3838469533206" stroke="#d62728" style="stroke-width: 6.84867; mix-blend-mode: multiply;"><title>Enero 2026 → Pack Fútbol: 18230.01</title></path><path d="M5,354.8778958681729C392.5,354.8778958681729,392.5,535.3245419708994,780,535.3245419708994" stroke="#d62728" style="stroke-width: 4.50818; mix-blend-mode: multiply;"><title>Enero 2026 → 10 GB 30 días: 12000</title></path><path d="M5,304.9370654392685C392.5,304.9370654392685,392.5,133.68030639776202,780,133.68030639776202" stroke="#d62728" style="stroke-width: 15.3308; mix-blend-mode: multiply;"><title>Enero 2026 → Internet 300 MB + Flow Full: 40808</title></path><path d="M5,578.729038102424C392.5,578.729038102424,392.5,578.7290381024243,780,578.7290381024243" stroke="#9467bd" style="stroke-width: 2.54192; mix-blend-mode: multiply;"><title>Febrero 2026 → Roaming Paraguay: 6766.17</title></path><path d="M5,540.6530733506548C392.5,540.6530733506548,392.5,327.36113786211354,780,327.36113786211354" stroke="#9467bd" style="stroke-width: 4.50818; mix-blend-mode: multiply;"><title>Febrero 2026 → Descuento Conexión Total: 12000.01</title></path><path d="M5,559.0555757169549C392.5,559.0555757169549,392.5,490.7643598817946,780,490.7643598817946" stroke="#9467bd" style="stroke-width: 29.6671; mix-blend-mode: multiply;"><title>Febrero 2026 → Plan 4 GB: 78968.67</title></path><path d="M5,543.5646055944562C392.5,543.5646055944562,392.5,356.59145668550474,780,356.59145668550474" stroke="#9467bd" style="stroke-width: 1.31488; mix-blend-mode: multiply;"><title>Febrero 2026 → Flow Box: 3500</title></path><path d="M5,534.4599646240501C392.5,534.4599646240501,392.5,286.85848172385886,780,286.85848172385886" stroke="#9467bd" style="stroke-width: 7.87804; mix-blend-mode: multiply;"><title>Febrero 2026 → Pack Fútbol: 20970</title></path><path d="M5,575.0161475112913C392.5,575.0161475112913,392.5,545.4679380825979,780,545.4679380825979" stroke="#9467bd" style="stroke-width: 2.25409; mix-blend-mode: multiply;"><title>Febrero 2026 → 10 GB 30 días: 6000</title></path><path d="M5,576.8006338642753C392.5,576.8006338642753,392.5,563.1535750407461,780,563.1535750407461" stroke="#9467bd" style="stroke-width: 1.31488; mix-blend-mode: multiply;"><title>Febrero 2026 → 3 GB: 3500</title></path><path d="M5,522.6278809004228C392.5,522.6278809004228,392.5,178.9461507495591,780,178.9461507495591" stroke="#9467bd" style="stroke-width: 15.7861; mix-blend-mode: multiply;"><title>Febrero 2026 → Internet 300 MB + Flow Full: 42020</title></path><path d="M5,283.5353802883457C392.5,283.5353802883457,392.5,519.3341708048989,780,519.3341708048989" stroke="#7f7f7f" style="stroke-width: 1; mix-blend-mode: multiply;"><title>Marzo 2026 → Roaming Panama: 475</title></path><path d="M5,255.53396616477636C392.5,255.53396616477636,392.5,309.32841863628533,780,309.32841863628533" stroke="#7f7f7f" style="stroke-width: 4.50818; mix-blend-mode: multiply;"><title>Marzo 2026 → Descuento Conexión Total: 12000.01</title></path><path d="M5,271.2895756134225C392.5,271.2895756134225,392.5,383.05253820688097,780,383.05253820688097" stroke="#7f7f7f" style="stroke-width: 24.3132; mix-blend-mode: multiply;"><title>Marzo 2026 → Plan 4 GB: 64717.51</title></path><path d="M5,258.4605256620768C392.5,258.4605256620768,392.5,351.50848818953136,780,351.50848818953136" stroke="#7f7f7f" style="stroke-width: 1.34494; mix-blend-mode: multiply;"><title>Marzo 2026 → Flow Box: 3580</title></path><path d="M5,249.24318029042956C392.5,249.24318029042956,392.5,258.92281371275374,780,258.92281371275374" stroke="#7f7f7f" style="stroke-width: 8.07339; mix-blend-mode: multiply;"><title>Marzo 2026 → Pack Fútbol: 21490</title></path><path d="M5,235.09690140639185C392.5,235.09690140639185,392.5,115.90532147509862,780,115.90532147509862" stroke="#7f7f7f" style="stroke-width: 20.2192; mix-blend-mode: multiply;"><title>Marzo 2026 → Internet 300 MB + Flow Full: 53819.99</title></path></g><g><text x="9" y="110.84024888761124" text-anchor="start"><tspan alignment-baseline="middle" style="font-family: Arial, sans-serif; font-size: 10px; fill: black; font-weight: bold;">Abril 2025</tspan></text><text x="776" y="317.0298935680535" text-anchor="end"><tspan alignment-baseline="middle" style="font-family: Arial, sans-serif; font-size: 10px; fill: black; font-weight: bold;">Descuento Conexión Total</tspan></text><text x="776" y="350.25559280747467" text-anchor="end"><tspan alignment-baseline="middle" style="font-family: Arial, sans-serif; font-size: 10px; fill: black; font-weight: bold;">Flow Box</tspan></text><text x="776" y="252.52740434273483" text-anchor="end"><tspan alignment-baseline="middle" style="font-family: Arial, sans-serif; font-size: 10px; fill: black; font-weight: bold;">Pack Fútbol</tspan></text><text x="776" y="107.06666664843468" text-anchor="end"><tspan alignment-baseline="middle" style="font-family: Arial, sans-serif; font-size: 10px; fill: black; font-weight: bold;">Internet 300 MB + Flow Full</tspan></text><text x="9" y="140.7077251377587" text-anchor="start"><tspan alignment-baseline="middle" style="font-family: Arial, sans-serif; font-size: 10px; fill: black; font-weight: bold;">Mayo 2025</tspan></text><text x="9" y="171.14924622837398" text-anchor="start"><tspan alignment-baseline="middle" style="font-family: Arial, sans-serif; font-size: 10px; fill: black; font-weight: bold;">Junio 2025</tspan></text><text x="9" y="8.835837216632823" text-anchor="start"><tspan alignment-baseline="middle" style="font-family: Arial, sans-serif; font-size: 10px; fill: black; font-weight: bold;">Julio 2025</tspan></text><text x="776" y="200.54826189402212" text-anchor="end"><tspan alignment-baseline="middle" style="font-family: Arial, sans-serif; font-size: 10px; fill: black; font-weight: bold;">Roaming Internacional</tspan></text><text x="9" y="202.35039310494756" text-anchor="start"><tspan alignment-baseline="middle" style="font-family: Arial, sans-serif; font-size: 10px; fill: black; font-weight: bold;">Agosto 2025</tspan></text><text x="9" y="42.275477585709865" text-anchor="start"><tspan alignment-baseline="middle" style="font-family: Arial, sans-serif; font-size: 10px; fill: black; font-weight: bold;">Septiembre 2025</tspan></text><text x="9" y="78.04114707732765" text-anchor="start"><tspan alignment-baseline="middle" style="font-family: Arial, sans-serif; font-size: 10px; fill: black; font-weight: bold;">Octubre 2025</tspan></text><text x="9" y="400.59800315077484" text-anchor="start"><tspan alignment-baseline="middle" style="font-family: Arial, sans-serif; font-size: 10px; fill: black; font-weight: bold;">Noviembre 2025</tspan></text><text x="776" y="438.2469227566637" text-anchor="end"><tspan alignment-baseline="middle" style="font-family: Arial, sans-serif; font-size: 10px; fill: black; font-weight: bold;">Plan 4 GB</tspan></text><text x="776" y="539.8327180205431" text-anchor="end"><tspan alignment-baseline="middle" style="font-family: Arial, sans-serif; font-size: 10px; fill: black; font-weight: bold;">10 GB 30 días</tspan></text><text x="776" y="562.0265291499286" text-anchor="end"><tspan alignment-baseline="middle" style="font-family: Arial, sans-serif; font-size: 10px; fill: black; font-weight: bold;">3 GB</tspan></text><text x="9" y="472.5758897925986" text-anchor="start"><tspan alignment-baseline="middle" style="font-family: Arial, sans-serif; font-size: 10px; fill: black; font-weight: bold;">Diciembre 2025</tspan></text><text x="9" y="327.2018236612596" text-anchor="start"><tspan alignment-baseline="middle" style="font-family: Arial, sans-serif; font-size: 10px; fill: black; font-weight: bold;">Enero 2026</tspan></text><text x="9" y="547.3674080000858" text-anchor="start"><tspan alignment-baseline="middle" style="font-family: Arial, sans-serif; font-size: 10px; fill: black; font-weight: bold;">Febrero 2026</tspan></text><text x="776" y="578.7290381024243" text-anchor="end"><tspan alignment-baseline="middle" style="font-family: Arial, sans-serif; font-size: 10px; fill: black; font-weight: bold;">Roaming Paraguay</tspan></text><text x="9" y="254.30596154973378" text-anchor="start"><tspan alignment-baseline="middle" style="font-family: Arial, sans-serif; font-size: 10px; fill: black; font-weight: bold;">Marzo 2026</tspan></text><text x="776" y="519.3341708048991" text-anchor="end"><tspan alignment-baseline="middle" style="font-family: Arial, sans-serif; font-size: 10px; fill: black; font-weight: bold;">Roaming Panama</tspan></text></g></g></svg>